<svg width="900" height="386" viewBox="0 0 900 386" fill="none" xmlns="http://www.w3.org/2000/svg">
  <g filter="url(#filter0_d_435_26)">
  <path d="M527.099 98.4393C509.392 90.6081 498.427 104.966 498.642 113.123C501.172 208.408 497.738 217.318 495.48 228.966C494.215 235.492 489.156 269.755 465.442 266.492C449.095 264.243 449.633 242.018 452.795 225.702C438.566 225.702 424.338 235.492 424.338 242.018C425.919 263.228 440.147 292.379 467.023 294.228C485.994 295.534 493.899 290.965 504.966 276.281C515.947 261.71 520.775 240.386 523.937 184.913C526.353 142.528 524.99 118.018 527.099 98.4393Z" stroke="#02B9B5"/>
  </g>
  <path d="M587.172 106.287C573.262 98.4555 553.974 109.55 550.811 114.445C552.39 130.761 552.39 165.024 553.974 212.34C555.553 220.498 577.158 219.41 579.266 217.235C578.005 179.382 584.008 125.866 587.172 106.287Z" stroke="#02B9B5"/>
  <path fill-rule="evenodd" clip-rule="evenodd" d="M629.24 25.8596V79.7013C629.197 81.6692 629.149 83.8062 629.095 86.0748C625.937 86.1734 623.301 86.228 621.334 86.228C602.364 86.228 597.223 87.8598 596.043 91.1228C593.93 95.4734 592.249 104.176 602.364 104.176C605.172 104.176 608.211 103.773 612.404 103.219C616.478 102.681 621.631 101.999 628.712 101.403C628.044 126.35 627.031 156.356 626.077 161.281C624.498 169.438 621.334 213.491 621.334 216.754C621.334 216.921 621.329 217.117 621.329 217.339C621.237 221.473 620.962 234.618 643.468 233.07C662.438 231.764 662.966 226 660.859 223.28C655.588 222.737 647.262 198.154 656.116 104.175L656.423 100.102C675.372 99.7804 701.499 100.275 738.323 102.544C738.323 97.649 734.217 86.5541 717.774 81.3331C703.029 82.2647 678.632 83.7279 657.587 84.8127L662.438 20.9648C660.331 17.7017 650.743 14.1122 629.24 25.8596Z" fill="#060718"/>
  <path d="M599.308 118.152C585.399 110.32 566.111 121.415 562.947 126.309C564.526 142.625 564.526 176.888 566.111 224.204C567.69 232.362 589.295 231.274 591.402 229.098C590.141 191.246 596.145 137.73 599.308 118.152Z" fill="#060718"/>
  <path d="M393.821 148.751C386.232 129.173 372.741 146.033 366.945 156.909L378.011 122.646C385.916 114.488 404.571 106.657 415.954 140.594C427.337 174.53 416.479 203.681 409.63 214.015C401.725 225.98 378.96 245.667 351.135 228.699C316.354 207.488 327.112 160.783 336.907 143.857C343.816 131.913 362.202 114.488 371.687 119.383C379.276 123.299 366.945 132.436 362.202 143.857C347.973 178.12 354.297 204.225 366.945 214.015C377.063 221.846 386.969 210.752 390.659 204.225C394.874 193.892 401.409 168.33 393.821 148.751Z" fill="#060718"/>
  <path fill-rule="evenodd" clip-rule="evenodd" d="M314.632 86.228C325.172 87.8598 345.619 86.5547 343.09 68.2809C340.455 59.0349 330.126 40.5439 309.89 40.5439C289.654 40.5439 275.109 53.5966 270.366 60.123C265.711 65.9946 256.486 85.8038 256.147 118.624C247.853 120.62 241.483 122.593 238.748 123.755C232.424 132.892 237.167 139.527 240.329 141.703C244.84 139.375 250.123 137.047 256.143 135.136C256.18 172.219 256.504 207.288 259.3 234.702C263.516 241.228 286.176 233.07 289.338 223.281C286.846 199.847 284.004 162.929 283.887 130.707C293.202 130.622 303.471 131.885 314.633 135.176C322.538 125.387 322.538 117.229 322.538 113.966C311.815 111.362 297.737 111.788 284.119 113.483C284.832 92.0076 287.245 74.6897 292.499 68.2809C297.242 58.4912 320.956 57.5122 314.632 86.228Z" fill="#060718"/>
  <path d="M107.528 247.755C51.8794 241.229 30.0625 250.786 23.7388 254.282C18.996 245.891 20.5769 237.422 20.5769 226.545C31.6434 221.882 41.6561 222.426 49.0338 221.882V65.0186C37.651 65.0186 23.7388 68.8254 17.415 71.5447V45.4397C52.828 36.3029 97.5159 40.0011 115.433 42.1765C116.698 46.0923 115.96 58.4925 115.433 65.0186C102.785 62.4078 84.3414 62.8431 79.0718 63.3868L77.4906 221.882C88.8732 223.188 104.894 223.282 109.11 226.545L107.528 247.755Z" fill="#060718"/>
  <path d="M153.376 125.387C136.935 125.387 125.447 131.913 121.758 135.176L128.082 179.229L129.662 221.649C137.567 229.807 152.323 228.72 158.119 223.281C173.296 151.492 186.576 143.334 191.319 148.229C199.224 151.492 196.062 175.965 192.9 203.702C191.412 216.755 205.547 231.439 229.261 221.649C216.614 211.86 217.141 168.351 218.195 141.703C211.871 127.345 193.427 123.755 184.995 123.755C179.936 126.366 159.7 167.264 150.215 187.386C151.796 175.965 154.958 146.597 153.376 125.387Z" fill="#060718"/>
  <path fill-rule="evenodd" clip-rule="evenodd" d="M511.141 122.906C512.318 114.639 522.971 102.626 539.493 109.933C538.429 119.811 538.249 130.942 538.021 144.991C537.797 158.791 537.528 175.404 536.331 196.407C533.169 251.881 528.341 273.205 517.359 287.775C506.293 302.46 498.388 307.028 479.417 305.723C452.541 303.874 438.312 274.723 436.732 253.512C436.732 246.986 450.96 237.197 465.188 237.197C462.027 253.512 461.489 275.737 477.836 277.986C500.394 281.09 506.072 250.237 507.66 241.604C507.742 241.162 507.812 240.778 507.874 240.46C508.028 239.662 508.189 238.877 508.352 238.076C509.529 232.308 510.873 225.721 511.527 207.612C507.277 216.284 499.158 228.229 487.321 232.301C472.144 237.522 455.702 226.863 449.379 220.88C441.474 212.722 427.878 188.901 436.731 158.88C445.585 128.859 463.607 118.091 471.512 116.46C480.095 113.333 499.518 110.505 511.141 122.906ZM511.697 155.117C508.028 144.796 501.049 132.135 490.483 131.144C473.093 129.512 458.864 165.406 463.607 196.406C466.769 210.003 478.152 230.67 498.388 204.564C499.449 202.739 501.507 198.367 503.511 194.109C504.492 192.023 505.461 189.966 506.293 188.248C507.672 186.825 509.772 185.775 511.912 186.775C511.957 177.997 511.896 167.575 511.697 155.117Z" fill="#060718"/>
  <path fill-rule="evenodd" clip-rule="evenodd" d="M617.211 13.5959V67.438C617.168 69.4059 617.125 71.5423 617.071 73.811C613.908 73.9096 611.272 73.9641 609.31 73.9641C590.34 73.9641 585.199 75.5959 584.013 78.859C581.906 83.2096 580.219 91.9118 590.34 91.9118C593.148 91.9118 596.188 91.5096 600.381 90.9554C604.449 90.4172 609.607 89.7357 616.688 89.1396C616.02 114.087 615.007 144.092 614.053 149.017C612.469 157.175 609.31 201.227 609.31 204.49C609.31 204.657 609.305 204.853 609.3 205.075C609.213 209.209 608.939 222.354 631.444 220.806C650.414 219.501 650.942 213.736 648.83 211.016C643.559 210.473 635.238 185.89 644.087 91.9118L644.4 87.8383C663.343 87.5172 689.47 88.0108 726.3 90.28C726.3 85.3851 722.188 74.2908 705.745 69.0698C691 70.0009 666.609 71.4647 645.558 72.5489L650.414 8.70116C648.302 5.43802 638.714 1.84855 617.211 13.5959Z" fill="#02B9B5"/>
  <path d="M617.211 67.4385L619.906 67.4991V67.4385H617.211ZM617.211 13.5964L615.945 11.167L614.517 11.9453V13.5964H617.211ZM617.071 73.8114L617.152 76.5649L619.701 76.485L619.766 73.877L617.071 73.8114ZM584.014 78.8595L586.428 80.0825L586.493 79.9525L586.541 79.8164L584.014 78.8595ZM616.688 89.1401L619.378 89.215L619.464 86.142L616.468 86.3943L616.688 89.1401ZM648.83 211.017L650.942 209.306L650.236 208.393L649.105 208.277L648.83 211.017ZM644.087 91.9122L646.771 92.1761L646.777 92.1255L644.087 91.9122ZM644.4 87.8388L644.351 85.0842L641.905 85.1261L641.711 87.625L644.4 87.8388ZM726.3 90.2804L726.138 93.0301L728.994 93.2064V90.2804H726.3ZM705.745 69.0703L706.548 66.4397L706.074 66.2898L705.578 66.3207L705.745 69.0703ZM645.559 72.5493L642.875 72.3361L642.638 75.4581L645.699 75.3006L645.559 72.5493ZM650.414 8.70161L653.098 8.91497L653.173 7.9722L652.662 7.18318L650.414 8.70161ZM619.906 67.4385V13.5964H614.517V67.4385H619.906ZM619.766 73.877C619.814 71.6067 619.863 69.4686 619.906 67.4991L614.517 67.3773C614.479 69.3435 614.43 71.4789 614.376 73.7459L619.766 73.877ZM609.311 76.7192C611.315 76.7192 613.983 76.6635 617.152 76.5649L616.99 71.0585C613.838 71.1566 611.235 71.21 609.311 71.21V76.7192ZM586.541 79.8164C586.627 79.5712 586.983 78.6485 590.545 77.8843C594.054 77.1323 599.836 76.7192 609.311 76.7192V71.21C599.815 71.21 593.542 71.6133 589.435 72.4926C585.393 73.3602 582.58 74.8846 581.486 77.9025L586.541 79.8164ZM590.341 89.1577C588.163 89.1577 586.972 88.6878 586.331 88.2299C585.744 87.8052 585.393 87.2284 585.226 86.4307C584.838 84.6104 585.48 82.036 586.428 80.0825L581.599 77.6364C580.435 80.034 579.185 83.9857 579.956 87.6041C580.371 89.5257 581.362 91.396 583.238 92.7392C585.065 94.0487 587.452 94.6668 590.341 94.6668V89.1577ZM600.036 88.2239C595.789 88.7853 592.938 89.1577 590.341 89.1577V94.6668C593.359 94.6668 596.587 94.2344 600.726 93.6873L600.036 88.2239ZM616.468 86.3943C609.321 86.9965 604.115 87.6845 600.036 88.2239L600.726 93.6873C604.789 93.1507 609.893 92.4758 616.909 91.8853L616.468 86.3943ZM616.694 149.553C616.974 148.104 617.227 145.105 617.459 141.265C617.702 137.341 617.939 132.327 618.171 126.701C618.623 115.447 619.044 101.694 619.378 89.215L613.994 89.0646C613.66 101.533 613.239 115.256 612.787 126.473C612.555 132.083 612.318 137.052 612.081 140.919C611.838 144.87 611.606 147.468 611.407 148.482L616.694 149.553ZM612.005 204.491C612.005 203.002 612.781 191.323 613.773 178.812C614.77 166.284 615.939 153.435 616.694 149.553L611.407 148.482C610.577 152.757 609.381 166.013 608.4 178.367C607.419 190.737 606.616 202.716 606.616 204.491H612.005ZM611.994 205.135C612 204.922 612.005 204.693 612.005 204.491H606.616C606.616 204.621 606.611 204.785 606.605 205.016L611.994 205.135ZM631.261 218.058C620.472 218.801 615.993 215.978 614.032 213.386C611.935 210.622 611.951 207.23 611.994 205.135L606.605 205.016C606.562 207.055 606.395 212.303 609.769 216.758C613.272 221.385 619.906 224.361 631.622 223.555L631.261 218.058ZM646.723 212.729C646.944 213.018 646.987 213.246 646.981 213.363C646.981 213.412 646.965 213.763 646.297 214.342C644.766 215.671 640.671 217.411 631.261 218.058L631.622 223.555C641.182 222.897 646.836 221.102 649.784 218.542C651.357 217.177 652.268 215.495 652.365 213.657C652.457 211.887 651.772 210.376 650.942 209.306L646.723 212.729ZM641.409 91.6478C636.973 138.713 636.823 168.548 638.482 186.757C639.307 195.845 640.595 202.173 642.093 206.343C642.842 208.422 643.688 210.097 644.653 211.325C645.602 212.527 646.895 213.586 648.56 213.758L649.105 208.277C649.45 208.312 649.336 208.484 648.851 207.871C648.388 207.282 647.79 206.214 647.154 204.443C645.882 200.914 644.653 195.121 643.845 186.247C642.233 168.535 642.352 139.09 646.771 92.1761L641.409 91.6478ZM641.711 87.625L641.403 91.6985L646.777 92.1255L647.084 88.052L641.711 87.625ZM726.462 87.5308C689.583 85.2589 663.386 84.7619 644.351 85.0842L644.443 90.5928C663.305 90.2733 689.357 90.7641 726.138 93.0301L726.462 87.5308ZM704.948 71.7009C720.383 76.6024 723.605 86.7171 723.605 90.2804H728.994C728.994 84.0546 723.993 71.9802 706.548 66.4397L704.948 71.7009ZM645.699 75.3006C666.754 74.2153 691.162 72.7515 705.912 71.8193L705.578 66.3207C690.844 67.2517 666.458 68.7144 645.424 69.798L645.699 75.3006ZM647.725 8.48824L642.875 72.3361L648.248 72.7625L653.098 8.91497L647.725 8.48824ZM618.483 16.0257C629.019 10.2695 636.375 8.41948 641.166 8.27338C646.06 8.12414 647.844 9.72052 648.167 10.22L652.662 7.18318C650.872 4.41957 646.809 2.58961 641.005 2.7667C635.098 2.9469 626.906 5.17579 615.945 11.167L618.483 16.0257Z" fill="#02B9B5"/>
  <path d="M587.28 105.888C573.365 98.0561 554.077 109.151 550.919 114.046C552.498 130.362 552.498 164.625 554.077 211.94C555.661 220.098 577.267 219.011 579.374 216.835C578.108 178.982 584.117 125.467 587.28 105.888Z" fill="#02B9B5"/>
  <path d="M381.795 136.488C374.207 116.909 360.715 133.769 354.919 144.645L365.986 110.383C373.89 102.225 392.546 94.3934 403.928 128.33C415.311 162.267 404.453 191.418 397.605 201.751C389.7 213.716 366.935 233.404 339.11 216.435C304.328 195.225 315.087 148.519 324.881 131.593C331.79 119.649 350.177 102.225 359.662 107.119C367.251 111.035 354.919 120.172 350.177 131.593C335.948 165.856 342.272 191.961 354.919 201.751C365.038 209.583 374.944 198.488 378.634 191.961C382.848 181.628 389.384 156.067 381.795 136.488Z" fill="#02B9B5"/>
  <path d="M354.773 147.385C349.715 114.754 369.002 103.333 381.649 104.965C388.501 113.122 398.408 128.785 383.231 126.175C368.054 123.564 357.935 139.227 354.773 147.385Z" fill="#02B9B5"/>
  <path fill-rule="evenodd" clip-rule="evenodd" d="M302.607 73.9655C313.147 75.5973 333.594 74.2916 331.064 56.0184C328.43 46.7724 318.1 28.2812 297.864 28.2812C277.628 28.2812 263.084 41.334 258.341 47.8603C253.685 53.7321 244.461 73.5407 244.122 106.361C235.827 108.356 229.458 110.33 226.723 111.492C220.399 120.628 225.141 127.264 228.303 129.439C232.815 127.111 238.098 124.783 244.117 122.872C244.155 159.956 244.478 195.025 247.274 222.439C251.49 228.965 274.15 220.808 277.312 211.018C274.82 187.584 271.979 150.666 271.862 118.443C281.176 118.359 291.446 119.621 302.608 122.912C310.512 113.123 310.512 104.965 310.512 101.702C299.79 99.0987 285.712 99.5246 272.094 101.219C272.806 79.7446 275.219 62.4272 280.474 56.0184C285.217 46.2287 308.931 45.2498 302.607 73.9655Z" fill="#02B9B5"/>
  <path d="M331.064 56.0181L333.732 55.6319L333.705 55.4369L333.651 55.2479L331.064 56.0181ZM302.607 73.9652L299.978 73.3603L299.343 76.246L302.203 76.6889L302.607 73.9652ZM258.34 47.86L260.434 49.5943L260.47 49.5492L260.504 49.5027L258.34 47.86ZM244.122 106.361L244.739 109.042L246.794 108.548L246.816 106.39L244.122 106.361ZM226.722 111.491L225.688 108.948L224.971 109.252L224.522 109.9L226.722 111.491ZM228.303 129.439L226.799 131.724L228.108 132.625L229.518 131.898L228.303 129.439ZM244.117 122.872L246.812 122.869L246.808 119.133L243.318 120.241L244.117 122.872ZM247.274 222.438L244.594 222.724L244.662 223.394L245.025 223.956L247.274 222.438ZM277.312 211.017L279.871 211.881L280.054 211.314L279.99 210.72L277.312 211.017ZM271.861 118.443L271.838 115.688L269.156 115.712L269.167 118.453L271.861 118.443ZM302.607 122.912L301.86 125.559L303.56 126.06L304.685 124.666L302.607 122.912ZM310.512 101.702H313.206V99.5248L311.135 99.0218L310.512 101.702ZM272.094 101.219L269.4 101.125L269.293 104.342L272.419 103.953L272.094 101.219ZM280.474 56.0181L282.539 57.7871L282.745 57.5353L282.888 57.2406L280.474 56.0181ZM328.396 56.4037C328.953 60.4292 328.22 63.2317 326.919 65.2409C325.592 67.2914 323.477 68.8191 320.768 69.8857C315.267 72.0508 308.048 72.0216 303.01 71.2415L302.203 76.6889C307.705 77.5406 315.979 77.6739 322.704 75.0268C326.109 73.6864 329.289 71.5632 331.414 68.2809C333.565 64.9566 334.439 60.7433 333.732 55.6319L328.396 56.4037ZM297.864 31.0355C307.092 31.0355 314.069 35.2253 319.123 40.5925C324.222 46.0074 327.264 52.5324 328.477 56.7883L333.651 55.2479C332.229 50.2575 328.79 42.914 323.006 36.7719C317.178 30.5821 308.872 25.5264 297.864 25.5264V31.0355ZM260.504 49.5027C264.91 43.4388 278.733 31.0355 297.864 31.0355V25.5264C276.523 25.5264 261.256 39.2286 256.178 46.2173L260.504 49.5027ZM246.816 106.39C247.151 73.9878 256.27 54.8461 260.434 49.5943L256.247 46.1256C251.1 52.6174 241.771 73.0931 241.427 106.331L246.816 106.39ZM243.504 103.679C235.183 105.681 228.635 107.695 225.688 108.948L227.756 114.035C230.279 112.963 236.471 111.031 244.739 109.042L243.504 103.679ZM224.522 109.9C220.962 115.046 220.331 119.817 221.35 123.776C222.334 127.601 224.769 130.327 226.799 131.724L229.808 127.154C228.675 126.374 227.159 124.695 226.562 122.375C225.999 120.188 226.159 117.074 228.922 113.082L224.522 109.9ZM229.518 131.898C233.918 129.627 239.063 127.361 244.916 125.503L243.318 120.241C237.133 122.205 231.711 124.595 227.089 126.98L229.518 131.898ZM249.954 222.153C247.175 194.904 246.849 159.978 246.812 122.869L241.422 122.875C241.46 159.933 241.781 195.145 244.594 222.724L249.954 222.153ZM274.753 210.154C274.208 211.84 272.689 213.767 270.25 215.654C267.864 217.501 264.85 219.113 261.768 220.257C258.67 221.409 255.663 222.03 253.301 222.03C250.771 222.03 249.797 221.345 249.522 220.921L245.025 223.956C246.859 226.795 250.299 227.539 253.301 227.539C256.472 227.539 260.119 226.732 263.608 225.435C267.113 224.133 270.621 222.277 273.504 220.046C276.336 217.854 278.834 215.09 279.871 211.881L274.753 210.154ZM269.167 118.453C269.284 150.803 272.135 187.823 274.633 211.316L279.99 210.72C277.505 187.344 274.672 150.528 274.556 118.432L269.167 118.453ZM271.885 121.197C280.94 121.115 290.949 122.341 301.86 125.559L303.354 120.266C291.941 116.901 281.413 115.602 271.838 115.688L271.885 121.197ZM304.685 124.666C313.155 114.177 313.206 105.275 313.206 101.702H307.817C307.817 104.655 307.869 112.069 300.529 121.159L304.685 124.666ZM311.135 99.0218C299.936 96.3025 285.473 96.779 271.768 98.4847L272.419 103.953C285.95 102.269 299.642 101.894 309.889 104.382L311.135 99.0218ZM278.409 54.2484C275.283 58.0603 273.281 64.6454 271.927 72.4898C270.546 80.4852 269.758 90.3268 269.4 101.125L274.787 101.312C275.141 90.6364 275.916 81.0824 277.234 73.4473C278.578 65.6624 280.409 60.3846 282.539 57.7871L278.409 54.2484ZM305.236 74.5701C306.887 67.07 306.66 61.1576 305.003 56.6924C303.317 52.1498 300.212 49.2963 296.608 47.962C293.077 46.6553 289.216 46.8545 285.915 48.0601C282.634 49.2589 279.626 51.5622 278.059 54.7953L282.888 57.2406C283.693 55.579 285.428 54.0887 287.729 53.2479C290.011 52.4141 292.573 52.3278 294.773 53.1421C296.899 53.9289 298.834 55.6027 299.964 58.647C301.123 61.7691 301.488 66.5025 299.978 73.3603L305.236 74.5701Z" fill="#02B9B5"/>
  <path d="M95.5034 235.49C39.8541 228.964 18.0371 238.521 11.7134 242.017C6.97058 233.627 8.5515 225.157 8.5515 214.28C19.6181 209.618 29.6307 210.162 37.0084 209.618V52.7539C25.6256 52.7539 11.7134 56.5609 5.38965 59.2802V33.1751C40.8027 24.0382 85.4902 27.7364 103.408 29.9119C104.673 33.8277 103.935 46.2276 103.408 52.7539C90.7603 50.1434 72.3162 50.5783 67.0461 51.1223L65.4655 209.618C76.848 210.923 92.8686 211.017 97.084 214.28L95.5034 235.49Z" fill="#02B9B5" stroke="#02B9B5"/>
  <path d="M141.351 113.123C124.909 113.123 113.42 119.649 109.731 122.913L116.055 166.965L117.636 209.386C125.541 217.544 140.296 216.456 146.093 211.018C161.27 139.228 174.55 131.071 179.293 135.965C187.198 139.228 184.036 163.702 180.874 191.439C179.386 204.491 193.521 219.175 217.236 209.386C204.588 199.597 205.115 156.088 206.169 129.439C199.845 115.081 181.401 111.491 172.969 111.491C167.91 114.102 147.674 155 138.189 175.123C139.769 163.702 142.931 134.334 141.351 113.123Z" fill="#02B9B5" stroke="#02B9B5"/>
  <path fill-rule="evenodd" clip-rule="evenodd" d="M499.115 110.641C500.292 102.374 510.945 90.3623 527.466 97.6701C526.402 107.547 526.222 118.679 525.994 132.727C525.771 146.527 525.502 163.141 524.304 184.144C521.142 239.617 516.314 260.941 505.333 275.512C494.266 290.196 486.362 294.764 467.391 293.459C440.515 291.61 426.286 262.459 424.705 241.249C424.705 234.722 438.933 224.933 453.162 224.933C450 241.249 449.463 263.474 465.81 265.722C488.368 268.827 494.045 237.973 495.633 229.341C495.715 228.898 495.786 228.514 495.847 228.196C496.002 227.398 496.162 226.613 496.325 225.813C497.502 220.045 498.846 213.458 499.5 195.35C495.25 204.023 487.131 215.966 475.296 220.037C460.119 225.258 443.677 214.599 437.353 208.616C429.448 200.458 415.853 176.637 424.706 146.617C433.559 116.596 451.582 105.827 459.486 104.196C468.069 101.069 487.492 98.242 499.115 110.641ZM499.671 142.851C496.001 132.53 489.023 119.871 478.457 118.88C461.068 117.248 446.839 153.143 451.582 184.143C454.744 197.74 466.126 218.406 486.362 192.3C487.424 190.476 489.482 186.103 491.485 181.845C492.467 179.76 493.435 177.702 494.267 175.985C495.646 174.562 497.746 173.512 499.886 174.51C499.931 165.732 499.869 155.31 499.671 142.851Z" fill="#02B9B5"/>
  <path fill-rule="evenodd" clip-rule="evenodd" d="M583.017 55.9779L580.748 58.3198C586.768 59.6338 595.197 64.0053 594.092 74.2451C593.575 79.0447 591.284 82.7369 588.353 85.4991C589.845 85.4496 589.064 86.304 584.596 88.6096C583.492 89.182 582.403 89.6916 581.347 90.145C579.892 90.8166 578.474 91.3267 577.202 91.6925C569.808 94.0532 564.069 93.7408 560.905 93.5684C560.264 93.5337 559.725 93.5039 559.305 93.5039C560.113 93.2659 560.954 93.0158 561.816 92.758C561.202 92.7084 560.587 92.6451 559.984 92.5663L559.305 93.5039C554.562 93.5039 535.589 82.0829 551.399 65.7676C564.047 52.7147 577.747 53.8024 583.017 55.9779ZM574.955 68.3448C570.741 67.8011 562.306 68.9971 562.306 78.134C562.306 89.555 584.44 69.9761 574.955 68.3448Z" fill="#02B9B5"/>
  <path d="M580.748 58.3204L578.835 56.3818L575.364 59.9616L580.187 61.0138L580.748 58.3204ZM583.017 55.9785L584.93 57.9172L587.781 54.9748L584.025 53.4243L583.017 55.9785ZM588.352 85.4997L586.525 83.4757L581.206 88.4934L588.444 88.2532L588.352 85.4997ZM581.346 90.1456L580.301 87.6042L580.236 87.6345L581.346 90.1456ZM577.202 91.6931L576.474 89.0415L576.437 89.052L576.399 89.0636L577.202 91.6931ZM561.816 92.7586L562.57 95.4029L562.031 90.0128L561.816 92.7586ZM559.983 92.5668L560.323 89.8343L558.76 89.6316L557.822 90.9246L559.983 92.5668ZM574.955 68.3454L575.402 65.6288L575.348 65.6195L575.294 65.6123L574.955 68.3454ZM582.661 60.2585L584.93 57.9172L581.104 54.04L578.835 56.3818L582.661 60.2585ZM596.77 74.547C597.422 68.4787 595.207 63.9794 591.909 60.9003C588.713 57.9238 584.601 56.3448 581.308 55.6265L580.187 61.0138C582.914 61.6099 586.024 62.8737 588.277 64.971C590.416 66.967 591.861 69.7734 591.413 73.9443L596.77 74.547ZM590.179 87.5243C593.483 84.4078 596.167 80.1366 596.77 74.547L591.413 73.9443C590.982 77.9539 589.08 81.0671 586.525 83.4757L590.179 87.5243ZM585.814 91.0689C587.996 89.9423 589.608 89.0129 590.459 88.2653C590.68 88.0763 591.036 87.7392 591.316 87.2643C591.575 86.8175 592.135 85.5306 591.311 84.1786C590.653 83.1049 589.592 82.8768 589.333 82.8239C588.929 82.7407 588.541 82.7374 588.266 82.7468L588.444 88.2532C588.541 88.2499 588.455 88.2626 588.277 88.2256C588.244 88.219 587.334 88.067 586.741 87.1029C585.981 85.86 586.525 84.7147 586.687 84.4442C586.859 84.1461 587.026 84.0194 586.962 84.0784C586.682 84.3219 585.668 84.9725 583.383 86.1509L585.814 91.0689ZM582.386 92.6858C583.502 92.2076 584.644 91.6705 585.814 91.0689L583.383 86.1509C582.332 86.6941 581.303 87.1767 580.306 87.6053L582.386 92.6858ZM577.935 94.3446C579.331 93.9436 580.872 93.3866 582.451 92.6566L580.236 87.6345C578.91 88.2477 577.622 88.7115 576.474 89.0415L577.935 94.3446ZM560.759 96.3197C564.014 96.4971 570.142 96.8331 578.005 94.3226L576.399 89.0636C569.474 91.2749 564.128 90.9863 561.05 90.8182L560.759 96.3197ZM559.304 96.2591C559.638 96.2591 560.091 96.2833 560.759 96.3197L561.05 90.8182C560.436 90.7846 559.816 90.7499 559.304 90.7499V96.2591ZM561.061 90.1147C560.199 90.372 559.364 90.621 558.555 90.8579L560.048 96.1516C560.862 95.912 561.708 95.6613 562.57 95.4029L561.061 90.1147ZM559.644 95.2999C560.296 95.3842 560.948 95.4514 561.6 95.5048L562.031 90.0128C561.455 89.966 560.883 89.907 560.323 89.8343L559.644 95.2999ZM561.465 95.1473L562.15 94.2097L557.822 90.9246L557.138 91.8622L561.465 95.1473ZM549.485 63.8295C545.238 68.211 543.077 72.5279 542.619 76.6768C542.161 80.8473 543.465 84.464 545.438 87.337C547.389 90.1797 550.029 92.3641 552.476 93.8378C553.705 94.5799 554.928 95.1671 556.044 95.5759C557.116 95.9676 558.27 96.2591 559.304 96.2591V90.7499C559.153 90.7499 558.674 90.6849 557.86 90.3885C557.095 90.1087 556.179 89.6767 555.214 89.0928C553.258 87.9149 551.258 86.2247 549.852 84.1726C548.461 82.1507 547.69 79.8534 547.976 77.2933C548.256 74.7123 549.652 71.4828 553.311 67.7063L549.485 63.8295ZM584.025 53.4243C577.822 50.8625 562.947 49.9341 549.485 63.8295L553.311 67.7063C565.146 55.4964 577.671 56.7432 582.009 58.5325L584.025 53.4243ZM575.294 65.6123C572.837 65.2961 569.091 65.4553 565.825 67.156C564.155 68.027 562.57 69.3277 561.411 71.2052C560.247 73.0904 559.611 75.402 559.611 78.1346H565.001C565.001 76.2989 565.421 75.0346 565.971 74.1426C566.526 73.2436 567.313 72.5654 568.277 72.0635C570.282 71.0179 572.853 70.8509 574.62 71.0779L575.294 65.6123ZM559.611 78.1346C559.611 79.9493 560.048 81.7948 561.411 83.0823C562.802 84.3951 564.559 84.5709 565.965 84.3847C568.655 84.0288 571.608 82.1975 573.904 80.2583C576.226 78.2976 578.501 75.7006 579.482 73.1956C579.967 71.9599 580.338 70.224 579.584 68.547C578.765 66.7362 577.067 65.9148 575.402 65.6288L574.507 71.0614C575.219 71.1831 574.906 71.3308 574.69 70.8587C574.54 70.5198 574.739 70.4917 574.48 71.1429C573.984 72.4111 572.497 74.3008 570.476 76.0108C568.423 77.7429 566.434 78.767 565.276 78.9207C564.753 78.9896 564.855 78.8337 565.071 79.0375C565.259 79.216 565.001 79.1752 565.001 78.1346H559.611Z" fill="#02B9B5"/>
  <g filter="url(#filter1_d_435_26)">
  <path d="M829.94 188.575C829.94 225.484 798.877 255.95 759.88 255.95C720.884 255.95 689.82 225.484 689.82 188.575C689.82 151.667 720.884 121.201 759.88 121.201C798.877 121.201 829.94 151.667 829.94 188.575Z" stroke="#0EB7B4" stroke-width="2"/>
  </g>
  <path d="M799.125 154.42L806.05 141.494L811.827 147.609L799.125 154.42Z" fill="#0EB7B4"/>
  <path d="M813.023 188.019L826.825 184.1L826.62 192.636L813.023 188.019Z" fill="#0EB7B4"/>
  <path d="M718.513 222.126L709.922 233.941L705.023 227.062L718.513 222.126Z" fill="#0EB7B4"/>
  <path d="M706.672 186.928L693.151 191.767L692.816 183.235L706.672 186.928Z" fill="#0EB7B4"/>
  <path d="M721.288 151.781L708.084 146.09L713.338 139.498L721.288 151.781Z" fill="#0EB7B4"/>
  <path d="M760.009 138.445L755.773 124.335L764.046 124.275L760.009 138.445Z" fill="#0EB7B4"/>
  <path d="M797.604 209.347L809.633 217.349L803.333 222.882L797.604 209.347Z" fill="#0EB7B4"/>
  <path d="M760.909 235.227L765.56 252.029L757.293 252.296L760.909 235.227Z" fill="#0EB7B4"/>
  <g filter="url(#filter2_d_435_26)">
  <path d="M774.211 188.601C774.211 195.573 768.088 201.746 759.881 201.746C751.673 201.746 745.551 195.573 745.551 188.601C745.551 181.628 751.673 175.454 759.881 175.454C768.088 175.454 774.211 181.628 774.211 188.601Z" stroke="#0EB7B4" stroke-width="2"/>
  </g>
  <g filter="url(#filter3_d_435_26)">
  <path d="M778.172 145.492L771.748 178.015L760.091 172.944L778.172 145.492Z" fill="#0EB7B4"/>
  </g>
  <g filter="url(#filter4_d_435_26)">
  <path d="M739.369 230.887L758.921 204.53L747.561 198.789L739.369 230.887Z" fill="#0EB7B4"/>
  </g>
  <g filter="url(#filter5_d_435_26)">
  <path d="M824.55 179.557C824.55 216.466 793.487 246.931 754.491 246.931C715.494 246.931 684.431 216.466 684.431 179.557C684.431 142.649 715.494 112.183 754.491 112.183C793.487 112.183 824.55 142.649 824.55 179.557Z" stroke="#050617" stroke-width="2"/>
  </g>
  <path d="M793.735 145.402L800.661 132.476L806.438 138.591L793.735 145.402Z" fill="black"/>
  <path d="M807.634 179.001L821.436 175.082L821.231 183.618L807.634 179.001Z" fill="black"/>
  <path d="M713.123 213.107L704.533 224.923L699.634 218.043L713.123 213.107Z" fill="black"/>
  <path d="M701.283 177.909L687.762 182.748L687.428 174.217L701.283 177.909Z" fill="black"/>
  <path d="M715.899 142.762L702.695 137.072L707.95 130.479L715.899 142.762Z" fill="black"/>
  <path d="M754.621 129.427L750.385 115.316L758.657 115.257L754.621 129.427Z" fill="black"/>
  <path d="M794.754 212.33L806.783 220.332L800.483 225.865L794.754 212.33Z" fill="black"/>
  <path d="M755.52 226.208L760.171 243.01L751.904 243.278L755.52 226.208Z" fill="black"/>
  <g filter="url(#filter6_d_435_26)">
  <path d="M768.821 179.582C768.821 186.555 762.699 192.728 754.491 192.728C746.283 192.728 740.161 186.555 740.161 179.582C740.161 172.609 746.283 166.436 754.491 166.436C762.699 166.436 768.821 172.609 768.821 179.582Z" stroke="#050617" stroke-width="2"/>
  </g>
  <g filter="url(#filter7_d_435_26)">
  <path d="M772.782 136.474L766.358 168.997L754.701 163.926L772.782 136.474Z" fill="#050617"/>
  </g>
  <g filter="url(#filter8_d_435_26)">
  <path d="M733.979 221.869L753.532 195.511L742.171 189.771L733.979 221.869Z" fill="#050617"/>
  </g>
  <defs>
  <filter id="filter0_d_435_26" x="411.838" y="87.6758" width="127.798" height="223.265" filterUnits="userSpaceOnUse" color-interpolation-filters="sRGB">
  <feFlood flood-opacity="0" result="BackgroundImageFix"/>
  <feColorMatrix in="SourceAlpha" type="matrix" values="0 0 0 0 0 0 0 0 0 0 0 0 0 0 0 0 0 0 127 0" result="hardAlpha"/>
  <feOffset dy="4"/>
  <feGaussianBlur stdDeviation="6"/>
  <feComposite in2="hardAlpha" operator="out"/>
  <feColorMatrix type="matrix" values="0 0 0 0 0 0 0 0 0 0 0 0 0 0 0 0 0 0 0.25 0"/>
  <feBlend mode="normal" in2="BackgroundImageFix" result="effect1_dropShadow_435_26"/>
  <feBlend mode="normal" in="SourceGraphic" in2="effect1_dropShadow_435_26" result="shape"/>
  </filter>
  <filter id="filter1_d_435_26" x="676.82" y="112.201" width="166.12" height="160.748" filterUnits="userSpaceOnUse" color-interpolation-filters="sRGB">
  <feFlood flood-opacity="0" result="BackgroundImageFix"/>
  <feColorMatrix in="SourceAlpha" type="matrix" values="0 0 0 0 0 0 0 0 0 0 0 0 0 0 0 0 0 0 127 0" result="hardAlpha"/>
  <feOffset dy="4"/>
  <feGaussianBlur stdDeviation="6"/>
  <feComposite in2="hardAlpha" operator="out"/>
  <feColorMatrix type="matrix" values="0 0 0 0 0.242696 0 0 0 0 0.212794 0 0 0 0 0.591551 0 0 0 0.31 0"/>
  <feBlend mode="normal" in2="BackgroundImageFix" result="effect1_dropShadow_435_26"/>
  <feBlend mode="normal" in="SourceGraphic" in2="effect1_dropShadow_435_26" result="shape"/>
  </filter>
  <filter id="filter2_d_435_26" x="732.551" y="166.454" width="54.6602" height="52.292" filterUnits="userSpaceOnUse" color-interpolation-filters="sRGB">
  <feFlood flood-opacity="0" result="BackgroundImageFix"/>
  <feColorMatrix in="SourceAlpha" type="matrix" values="0 0 0 0 0 0 0 0 0 0 0 0 0 0 0 0 0 0 127 0" result="hardAlpha"/>
  <feOffset dy="4"/>
  <feGaussianBlur stdDeviation="6"/>
  <feComposite in2="hardAlpha" operator="out"/>
  <feColorMatrix type="matrix" values="0 0 0 0 0 0 0 0 0 0 0 0 0 0 0 0 0 0 0.25 0"/>
  <feBlend mode="normal" in2="BackgroundImageFix" result="effect1_dropShadow_435_26"/>
  <feBlend mode="normal" in="SourceGraphic" in2="effect1_dropShadow_435_26" result="shape"/>
  </filter>
  <filter id="filter3_d_435_26" x="748.091" y="137.492" width="42.0811" height="56.5234" filterUnits="userSpaceOnUse" color-interpolation-filters="sRGB">
  <feFlood flood-opacity="0" result="BackgroundImageFix"/>
  <feColorMatrix in="SourceAlpha" type="matrix" values="0 0 0 0 0 0 0 0 0 0 0 0 0 0 0 0 0 0 127 0" result="hardAlpha"/>
  <feOffset dy="4"/>
  <feGaussianBlur stdDeviation="6"/>
  <feComposite in2="hardAlpha" operator="out"/>
  <feColorMatrix type="matrix" values="0 0 0 0 0 0 0 0 0 0 0 0 0 0 0 0 0 0 0.25 0"/>
  <feBlend mode="normal" in2="BackgroundImageFix" result="effect1_dropShadow_435_26"/>
  <feBlend mode="normal" in="SourceGraphic" in2="effect1_dropShadow_435_26" result="shape"/>
  </filter>
  <filter id="filter4_d_435_26" x="727.369" y="190.789" width="43.5518" height="56.0977" filterUnits="userSpaceOnUse" color-interpolation-filters="sRGB">
  <feFlood flood-opacity="0" result="BackgroundImageFix"/>
  <feColorMatrix in="SourceAlpha" type="matrix" values="0 0 0 0 0 0 0 0 0 0 0 0 0 0 0 0 0 0 127 0" result="hardAlpha"/>
  <feOffset dy="4"/>
  <feGaussianBlur stdDeviation="6"/>
  <feComposite in2="hardAlpha" operator="out"/>
  <feColorMatrix type="matrix" values="0 0 0 0 0 0 0 0 0 0 0 0 0 0 0 0 0 0 0.25 0"/>
  <feBlend mode="normal" in2="BackgroundImageFix" result="effect1_dropShadow_435_26"/>
  <feBlend mode="normal" in="SourceGraphic" in2="effect1_dropShadow_435_26" result="shape"/>
  </filter>
  <filter id="filter5_d_435_26" x="671.431" y="103.183" width="166.12" height="160.748" filterUnits="userSpaceOnUse" color-interpolation-filters="sRGB">
  <feFlood flood-opacity="0" result="BackgroundImageFix"/>
  <feColorMatrix in="SourceAlpha" type="matrix" values="0 0 0 0 0 0 0 0 0 0 0 0 0 0 0 0 0 0 127 0" result="hardAlpha"/>
  <feOffset dy="4"/>
  <feGaussianBlur stdDeviation="6"/>
  <feComposite in2="hardAlpha" operator="out"/>
  <feColorMatrix type="matrix" values="0 0 0 0 0.242696 0 0 0 0 0.212794 0 0 0 0 0.591551 0 0 0 0.31 0"/>
  <feBlend mode="normal" in2="BackgroundImageFix" result="effect1_dropShadow_435_26"/>
  <feBlend mode="normal" in="SourceGraphic" in2="effect1_dropShadow_435_26" result="shape"/>
  </filter>
  <filter id="filter6_d_435_26" x="727.161" y="157.436" width="54.6602" height="52.292" filterUnits="userSpaceOnUse" color-interpolation-filters="sRGB">
  <feFlood flood-opacity="0" result="BackgroundImageFix"/>
  <feColorMatrix in="SourceAlpha" type="matrix" values="0 0 0 0 0 0 0 0 0 0 0 0 0 0 0 0 0 0 127 0" result="hardAlpha"/>
  <feOffset dy="4"/>
  <feGaussianBlur stdDeviation="6"/>
  <feComposite in2="hardAlpha" operator="out"/>
  <feColorMatrix type="matrix" values="0 0 0 0 0 0 0 0 0 0 0 0 0 0 0 0 0 0 0.25 0"/>
  <feBlend mode="normal" in2="BackgroundImageFix" result="effect1_dropShadow_435_26"/>
  <feBlend mode="normal" in="SourceGraphic" in2="effect1_dropShadow_435_26" result="shape"/>
  </filter>
  <filter id="filter7_d_435_26" x="742.701" y="128.474" width="42.0811" height="56.5234" filterUnits="userSpaceOnUse" color-interpolation-filters="sRGB">
  <feFlood flood-opacity="0" result="BackgroundImageFix"/>
  <feColorMatrix in="SourceAlpha" type="matrix" values="0 0 0 0 0 0 0 0 0 0 0 0 0 0 0 0 0 0 127 0" result="hardAlpha"/>
  <feOffset dy="4"/>
  <feGaussianBlur stdDeviation="6"/>
  <feComposite in2="hardAlpha" operator="out"/>
  <feColorMatrix type="matrix" values="0 0 0 0 0 0 0 0 0 0 0 0 0 0 0 0 0 0 0.25 0"/>
  <feBlend mode="normal" in2="BackgroundImageFix" result="effect1_dropShadow_435_26"/>
  <feBlend mode="normal" in="SourceGraphic" in2="effect1_dropShadow_435_26" result="shape"/>
  </filter>
  <filter id="filter8_d_435_26" x="721.979" y="181.771" width="43.5518" height="56.0986" filterUnits="userSpaceOnUse" color-interpolation-filters="sRGB">
  <feFlood flood-opacity="0" result="BackgroundImageFix"/>
  <feColorMatrix in="SourceAlpha" type="matrix" values="0 0 0 0 0 0 0 0 0 0 0 0 0 0 0 0 0 0 127 0" result="hardAlpha"/>
  <feOffset dy="4"/>
  <feGaussianBlur stdDeviation="6"/>
  <feComposite in2="hardAlpha" operator="out"/>
  <feColorMatrix type="matrix" values="0 0 0 0 0 0 0 0 0 0 0 0 0 0 0 0 0 0 0.25 0"/>
  <feBlend mode="normal" in2="BackgroundImageFix" result="effect1_dropShadow_435_26"/>
  <feBlend mode="normal" in="SourceGraphic" in2="effect1_dropShadow_435_26" result="shape"/>
  </filter>
  </defs>
  </svg>
